STARTFONT 2.1
FONT -FontForge-Fredoka One-Book-R-Normal--16-160-72-72-P-92-ISO10646-1
SIZE 16 72 72
FONTBOUNDINGBOX 21 20 -2 -4
COMMENT "Generated by fontforge, http://fontforge.sourceforge.net"
COMMENT "Copyright (c) 2011 Milena B Brandao (milenabbrandao@gmail.com), with Reserved Font Name "Fredoka""
STARTPROPERTIES 39
FOUNDRY "FontForge"
FAMILY_NAME "Fredoka One"
WEIGHT_NAME "Book"
SLANT "R"
SETWIDTH_NAME "Normal"
ADD_STYLE_NAME ""
PIXEL_SIZE 16
POINT_SIZE 160
RESOLUTION_X 72
RESOLUTION_Y 72
SPACING "P"
AVERAGE_WIDTH 92
CHARSET_REGISTRY "ISO10646"
CHARSET_ENCODING "1"
FONTNAME_REGISTRY ""
CHARSET_COLLECTIONS "ISO10646-1"
FONT_NAME "FredokaOne-Regular"
FACE_NAME "Fredoka One"
COPYRIGHT "Copyright (c) 2011 Milena B Brandao (milenabbrandao@gmail.com), with Reserved Font Name "Fredoka""
FONT_VERSION "1.001"
FONT_ASCENT 13
FONT_DESCENT 3
UNDERLINE_POSITION -2
UNDERLINE_THICKNESS 1
X_HEIGHT 8
CAP_HEIGHT 11
RAW_ASCENT 800
RAW_DESCENT 200
NORM_SPACE 4
RELATIVE_WEIGHT 40
RELATIVE_SETWIDTH 50
SUPERSCRIPT_X 0
SUPERSCRIPT_Y 7
SUPERSCRIPT_SIZE 10
SUBSCRIPT_X 0
SUBSCRIPT_Y 2
SUBSCRIPT_SIZE 10
AVG_LOWERCASE_WIDTH 92
AVG_UPPERCASE_WIDTH 108
ENDPROPERTIES
CHARS 235
STARTCHAR space
ENCODING 32
SWIDTH 253 0
DWIDTH 4 0
BBX 1 1 0 0
BITMAP
00
ENDCHAR
STARTCHAR exclam
ENCODING 33
SWIDTH 267 0
DWIDTH 4 0
BBX 3 12 1 0
BITMAP
C0
E0
E0
E0
E0
E0
E0
C0
00
C0
E0
C0
ENDCHAR
STARTCHAR quotedbl
ENCODING 34
SWIDTH 429 0
DWIDTH 7 0
BBX 6 6 0 6
BITMAP
6C
EC
EC
6C
6C
44
ENDCHAR
STARTCHAR numbersign
ENCODING 35
SWIDTH 749 0
DWIDTH 12 0
BBX 12 12 0 0
BITMAP
0C40
1CC0
1CC0
7FF0
7FF0
19C0
19C0
7FE0
FFE0
3180
3180
3380
ENDCHAR
STARTCHAR dollar
ENCODING 36
SWIDTH 475 0
DWIDTH 8 0
BBX 7 13 0 -1
BITMAP
18
18
7C
7E
60
78
3E
0E
66
FE
7C
18
18
ENDCHAR
STARTCHAR percent
ENCODING 37
SWIDTH 838 0
DWIDTH 13 0
BBX 12 13 1 0
BITMAP
0080
70C0
F980
D900
9B00
FA00
F600
04E0
0DE0
0B30
1B30
11F0
31E0
ENDCHAR
STARTCHAR ampersand
ENCODING 38
SWIDTH 748 0
DWIDTH 12 0
BBX 12 12 0 0
BITMAP
1F00
3F00
3300
3700
3F00
3C00
7CE0
7EE0
EFC0
F7E0
7FF0
3EE0
ENDCHAR
STARTCHAR quotesingle
ENCODING 39
SWIDTH 208 0
DWIDTH 3 0
BBX 3 6 0 6
BITMAP
60
E0
E0
60
60
40
ENDCHAR
STARTCHAR parenleft
ENCODING 40
SWIDTH 384 0
DWIDTH 6 0
BBX 6 16 0 -4
BITMAP
1C
3C
70
60
60
60
60
E0
60
60
60
60
70
38
1C
0C
ENDCHAR
STARTCHAR parenright
ENCODING 41
SWIDTH 384 0
DWIDTH 6 0
BBX 6 16 0 -4
BITMAP
E0
F0
38
18
18
1C
1C
1C
1C
1C
18
18
38
30
F0
40
ENDCHAR
STARTCHAR asterisk
ENCODING 42
SWIDTH 503 0
DWIDTH 8 0
BBX 8 7 0 5
BITMAP
18
18
FF
FF
3C
7E
7E
ENDCHAR
STARTCHAR plus
ENCODING 43
SWIDTH 527 0
DWIDTH 8 0
BBX 8 7 0 1
BITMAP
18
18
7F
FF
7F
18
18
ENDCHAR
STARTCHAR comma
ENCODING 44
SWIDTH 238 0
DWIDTH 4 0
BBX 3 6 0 -3
BITMAP
60
E0
60
60
40
80
ENDCHAR
STARTCHAR hyphen
ENCODING 45
SWIDTH 433 0
DWIDTH 7 0
BBX 7 3 0 2
BITMAP
7C
FE
7C
ENDCHAR
STARTCHAR period
ENCODING 46
SWIDTH 237 0
DWIDTH 4 0
BBX 3 3 0 0
BITMAP
60
E0
60
ENDCHAR
STARTCHAR slash
ENCODING 47
SWIDTH 526 0
DWIDTH 8 0
BBX 8 14 0 -1
BITMAP
02
07
07
06
0E
0C
1C
1C
38
38
70
70
E0
60
ENDCHAR
STARTCHAR zero
ENCODING 48
SWIDTH 608 0
DWIDTH 10 0
BBX 9 12 0 0
BITMAP
1E00
3F00
7F80
7380
6380
E380
E380
E380
7380
7F80
7F00
3E00
ENDCHAR
STARTCHAR one
ENCODING 49
SWIDTH 407 0
DWIDTH 7 0
BBX 6 12 0 0
BITMAP
0C
1C
7C
FC
FC
5C
1C
1C
1C
1C
1C
1C
ENDCHAR
STARTCHAR two
ENCODING 50
SWIDTH 609 0
DWIDTH 10 0
BBX 10 12 0 0
BITMAP
1E00
3F00
7F80
F380
E380
6380
0F00
1F00
7C00
7F80
FFC0
7F80
ENDCHAR
STARTCHAR three
ENCODING 51
SWIDTH 608 0
DWIDTH 10 0
BBX 9 12 0 0
BITMAP
1E00
3F00
7F80
7380
0F80
0F00
0F80
0380
E380
7F80
7F80
3E00
ENDCHAR
STARTCHAR four
ENCODING 52
SWIDTH 592 0
DWIDTH 9 0
BBX 9 12 0 0
BITMAP
3300
3380
7380
7380
7380
6380
FF80
FF80
7F80
0380
0380
0380
ENDCHAR
STARTCHAR five
ENCODING 53
SWIDTH 530 0
DWIDTH 8 0
BBX 8 12 0 0
BITMAP
3F
7F
7F
70
7C
7E
FF
67
07
FF
FE
7C
ENDCHAR
STARTCHAR six
ENCODING 54
SWIDTH 560 0
DWIDTH 9 0
BBX 9 12 0 0
BITMAP
0700
1F00
3F00
7800
7000
7E00
FF00
FF00
E380
7700
7F00
3E00
ENDCHAR
STARTCHAR seven
ENCODING 55
SWIDTH 561 0
DWIDTH 9 0
BBX 9 12 0 0
BITMAP
7F00
FF80
FF80
0700
0700
0E00
1E00
1C00
3800
3800
3800
3800
ENDCHAR
STARTCHAR eight
ENCODING 56
SWIDTH 582 0
DWIDTH 9 0
BBX 9 12 0 0
BITMAP
1E00
7F00
7F00
7380
7700
7F00
7F00
7380
E380
7780
7F00
3E00
ENDCHAR
STARTCHAR nine
ENCODING 57
SWIDTH 560 0
DWIDTH 9 0
BBX 9 12 0 0
BITMAP
3C00
7F00
7F00
E300
F780
7F80
3F00
0700
0F00
7E00
7C00
7800
ENDCHAR
STARTCHAR colon
ENCODING 58
SWIDTH 238 0
DWIDTH 4 0
BBX 3 8 0 0
BITMAP
60
E0
60
00
00
60
E0
60
ENDCHAR
STARTCHAR semicolon
ENCODING 59
SWIDTH 237 0
DWIDTH 4 0
BBX 3 11 0 -3
BITMAP
60
E0
60
00
00
60
E0
60
60
60
80
ENDCHAR
STARTCHAR less
ENCODING 60
SWIDTH 627 0
DWIDTH 10 0
BBX 10 11 0 0
BITMAP
0180
03C0
0F80
3E00
7C00
F000
7C00
3E00
0F80
03C0
0180
ENDCHAR
STARTCHAR equal
ENCODING 61
SWIDTH 478 0
DWIDTH 8 0
BBX 7 5 0 1
BITMAP
FE
7E
00
FE
FE
ENDCHAR
STARTCHAR greater
ENCODING 62
SWIDTH 627 0
DWIDTH 10 0
BBX 10 11 0 0
BITMAP
6000
F000
7C00
1F00
0F80
03C0
0F80
1F00
7C00
F000
6000
ENDCHAR
STARTCHAR question
ENCODING 63
SWIDTH 512 0
DWIDTH 8 0
BBX 8 12 0 0
BITMAP
3C
7E
FF
E7
07
1E
1C
18
00
18
1C
18
ENDCHAR
STARTCHAR at
ENCODING 64
SWIDTH 908 0
DWIDTH 15 0
BBX 14 13 0 -2
BITMAP
0780
1FE0
3878
73D8
67CC
EDCC
CCCC
CFCC
6FCC
61D8
70F8
3E60
0E00
ENDCHAR
STARTCHAR A
ENCODING 65
SWIDTH 765 0
DWIDTH 12 0
BBX 12 12 0 0
BITMAP
0600
0700
0F00
0F80
1F80
1FC0
39C0
3FE0
7FE0
7FE0
E070
6070
ENDCHAR
STARTCHAR B
ENCODING 66
SWIDTH 646 0
DWIDTH 10 0
BBX 9 12 1 0
BITMAP
FC00
FF00
FF00
C380
C380
CF00
CF80
C380
C380
FF80
FF00
FE00
ENDCHAR
STARTCHAR C
ENCODING 67
SWIDTH 679 0
DWIDTH 11 0
BBX 10 12 0 0
BITMAP
0700
1FC0
3FC0
78C0
7000
E000
E000
7000
7040
7FC0
3FC0
0F80
ENDCHAR
STARTCHAR D
ENCODING 68
SWIDTH 704 0
DWIDTH 11 0
BBX 10 12 1 0
BITMAP
FC00
FF00
FF80
C780
C1C0
C1C0
C1C0
C1C0
C380
FF80
FF00
FC00
ENDCHAR
STARTCHAR E
ENCODING 69
SWIDTH 638 0
DWIDTH 10 0
BBX 9 12 1 0
BITMAP
FF00
FF80
FF80
C000
C000
FE00
FE00
FC00
C000
FF80
FF80
FF80
ENDCHAR
STARTCHAR F
ENCODING 70
SWIDTH 637 0
DWIDTH 10 0
BBX 9 12 1 0
BITMAP
FF00
FF80
FF80
C000
C000
FE00
FE00
FC00
C000
C000
C000
C000
ENDCHAR
STARTCHAR G
ENCODING 71
SWIDTH 714 0
DWIDTH 11 0
BBX 11 12 0 0
BITMAP
0F80
3FC0
3FC0
70C0
7000
E3E0
E3E0
70E0
70E0
7FE0
3FE0
0F80
ENDCHAR
STARTCHAR H
ENCODING 72
SWIDTH 699 0
DWIDTH 11 0
BBX 10 12 1 0
BITMAP
C180
C1C0
C1C0
C1C0
C1C0
FFC0
FFC0
C1C0
C1C0
C1C0
C1C0
C180
ENDCHAR
STARTCHAR I
ENCODING 73
SWIDTH 257 0
DWIDTH 4 0
BBX 2 12 1 0
BITMAP
C0
C0
C0
C0
C0
C0
C0
C0
C0
C0
C0
C0
ENDCHAR
STARTCHAR J
ENCODING 74
SWIDTH 549 0
DWIDTH 9 0
BBX 8 12 0 0
BITMAP
03
07
07
07
07
07
07
07
47
FF
7E
3C
ENDCHAR
STARTCHAR K
ENCODING 75
SWIDTH 639 0
DWIDTH 10 0
BBX 9 12 1 0
BITMAP
C300
C780
CF00
CE00
DC00
F800
F800
FC00
DE00
CF00
C780
C300
ENDCHAR
STARTCHAR L
ENCODING 76
SWIDTH 587 0
DWIDTH 9 0
BBX 8 12 1 0
BITMAP
C0
C0
C0
C0
C0
C0
C0
C0
C0
C0
FF
FF
ENDCHAR
STARTCHAR M
ENCODING 77
SWIDTH 870 0
DWIDTH 14 0
BBX 12 12 1 0
BITMAP
C030
E070
F0F0
F1F0
F9F0
DFF0
DF70
CF70
C670
C070
C070
C030
ENDCHAR
STARTCHAR N
ENCODING 78
SWIDTH 720 0
DWIDTH 12 0
BBX 10 12 1 0
BITMAP
C180
E1C0
F1C0
F1C0
F9C0
DDC0
DFC0
CFC0
C7C0
C3C0
C3C0
C1C0
ENDCHAR
STARTCHAR O
ENCODING 79
SWIDTH 775 0
DWIDTH 12 0
BBX 12 12 0 0
BITMAP
0F00
1FC0
3FE0
78E0
7070
E070
E070
6070
70F0
7FE0
3FC0
1F80
ENDCHAR
STARTCHAR P
ENCODING 80
SWIDTH 632 0
DWIDTH 10 0
BBX 9 12 1 0
BITMAP
FC00
FE00
FF00
C780
C380
C380
FF00
FF00
FC00
C000
C000
C000
ENDCHAR
STARTCHAR Q
ENCODING 81
SWIDTH 830 0
DWIDTH 13 0
BBX 13 12 0 0
BITMAP
0F00
1FC0
3FE0
78E0
7070
E070
E070
6070
70F0
7FF0
3FF8
1FB8
ENDCHAR
STARTCHAR R
ENCODING 82
SWIDTH 631 0
DWIDTH 10 0
BBX 9 12 1 0
BITMAP
FC00
FE00
FF00
C780
C380
C380
FF00
FF00
FF00
C700
C380
C380
ENDCHAR
STARTCHAR S
ENCODING 83
SWIDTH 583 0
DWIDTH 9 0
BBX 9 12 0 0
BITMAP
1E00
7F00
7F00
6200
7000
7E00
3F80
0780
6380
F780
7F00
3E00
ENDCHAR
STARTCHAR T
ENCODING 84
SWIDTH 731 0
DWIDTH 12 0
BBX 11 12 0 0
BITMAP
FFE0
FFE0
7FE0
0E00
0E00
0E00
0E00
0E00
0E00
0E00
0E00
0600
ENDCHAR
STARTCHAR U
ENCODING 85
SWIDTH 726 0
DWIDTH 12 0
BBX 10 12 1 0
BITMAP
C1C0
C1C0
C1C0
C1C0
C1C0
C1C0
C1C0
E1C0
E1C0
FF80
7F80
3E00
ENDCHAR
STARTCHAR V
ENCODING 86
SWIDTH 783 0
DWIDTH 13 0
BBX 12 12 0 0
BITMAP
6020
E070
7070
70E0
38E0
39C0
1DC0
1D80
0F80
0F00
0700
0600
ENDCHAR
STARTCHAR W
ENCODING 87
SWIDTH 999 0
DWIDTH 16 0
BBX 16 12 0 0
BITMAP
6186
E187
73CE
73CE
73CE
37FC
3FFC
3E7C
1E78
1E78
1C38
0C30
ENDCHAR
STARTCHAR X
ENCODING 88
SWIDTH 741 0
DWIDTH 12 0
BBX 12 12 0 0
BITMAP
6060
F0F0
79E0
3BC0
1F80
0F00
0F00
1F80
3FC0
79E0
F0F0
6060
ENDCHAR
STARTCHAR Y
ENCODING 89
SWIDTH 686 0
DWIDTH 11 0
BBX 11 12 0 0
BITMAP
60C0
E0E0
71C0
7BC0
3B80
1F00
1F00
0E00
0E00
0E00
0E00
0E00
ENDCHAR
STARTCHAR Z
ENCODING 90
SWIDTH 643 0
DWIDTH 10 0
BBX 10 12 0 0
BITMAP
7F80
FFC0
7F80
0780
0F00
0E00
1E00
3C00
3800
7FC0
FFC0
7FC0
ENDCHAR
STARTCHAR bracketleft
ENCODING 91
SWIDTH 348 0
DWIDTH 6 0
BBX 4 16 1 -4
BITMAP
F0
F0
C0
C0
C0
C0
C0
C0
C0
C0
C0
C0
C0
F0
F0
F0
ENDCHAR
STARTCHAR backslash
ENCODING 92
SWIDTH 528 0
DWIDTH 8 0
BBX 8 14 0 -1
BITMAP
40
E0
60
70
70
38
38
1C
1C
0E
0E
07
07
03
ENDCHAR
STARTCHAR bracketright
ENCODING 93
SWIDTH 348 0
DWIDTH 6 0
BBX 5 16 0 -4
BITMAP
F8
F8
38
38
38
38
38
38
38
38
38
38
38
F8
F8
70
ENDCHAR
STARTCHAR asciicircum
ENCODING 94
SWIDTH 526 0
DWIDTH 8 0
BBX 7 5 1 4
BITMAP
10
38
7C
EE
C4
ENDCHAR
STARTCHAR underscore
ENCODING 95
SWIDTH 826 0
DWIDTH 13 0
BBX 13 3 0 -4
BITMAP
7FF0
FFF8
7FF8
ENDCHAR
STARTCHAR grave
ENCODING 96
SWIDTH 482 0
DWIDTH 8 0
BBX 4 3 2 9
BITMAP
E0
F0
30
ENDCHAR
STARTCHAR a
ENCODING 97
SWIDTH 596 0
DWIDTH 10 0
BBX 9 8 0 0
BITMAP
3F80
7F80
7780
E380
E380
7F80
7F80
1F80
ENDCHAR
STARTCHAR b
ENCODING 98
SWIDTH 592 0
DWIDTH 9 0
BBX 8 12 1 0
BITMAP
C0
C0
C0
C0
FE
FE
EF
E7
E7
FF
FE
DC
ENDCHAR
STARTCHAR c
ENCODING 99
SWIDTH 517 0
DWIDTH 8 0
BBX 8 9 0 0
BITMAP
08
3F
7F
76
E0
E0
7F
7F
1E
ENDCHAR
STARTCHAR d
ENCODING 100
SWIDTH 598 0
DWIDTH 10 0
BBX 9 12 0 0
BITMAP
0380
0380
0380
0380
3F80
7F80
7780
E380
6380
7F80
7F80
1F80
ENDCHAR
STARTCHAR e
ENCODING 101
SWIDTH 573 0
DWIDTH 9 0
BBX 9 9 0 0
BITMAP
0C00
3F00
7F80
7380
FF80
FF00
7100
7F00
3F00
ENDCHAR
STARTCHAR f
ENCODING 102
SWIDTH 450 0
DWIDTH 7 0
BBX 7 12 0 0
BITMAP
1E
3E
38
38
FE
FE
38
38
38
38
38
30
ENDCHAR
STARTCHAR g
ENCODING 103
SWIDTH 585 0
DWIDTH 9 0
BBX 9 12 0 -4
BITMAP
3F80
7F80
7780
E380
E380
7F80
3F80
1B80
2380
7F00
7E00
1C00
ENDCHAR
STARTCHAR h
ENCODING 104
SWIDTH 605 0
DWIDTH 10 0
BBX 8 12 1 0
BITMAP
C0
C0
C0
C0
DE
FE
EF
C7
C7
C7
C7
C7
ENDCHAR
STARTCHAR i
ENCODING 105
SWIDTH 255 0
DWIDTH 4 0
BBX 2 12 1 0
BITMAP
C0
C0
00
00
C0
C0
C0
C0
C0
C0
C0
C0
ENDCHAR
STARTCHAR j
ENCODING 106
SWIDTH 252 0
DWIDTH 4 0
BBX 5 16 -2 -4
BITMAP
18
18
00
00
18
18
18
18
18
18
18
18
38
F8
F0
C0
ENDCHAR
STARTCHAR k
ENCODING 107
SWIDTH 536 0
DWIDTH 9 0
BBX 7 12 1 0
BITMAP
C0
C0
C0
C0
CC
DE
FC
F8
F8
DE
CE
C6
ENDCHAR
STARTCHAR l
ENCODING 108
SWIDTH 327 0
DWIDTH 5 0
BBX 4 12 1 0
BITMAP
C0
C0
C0
C0
C0
C0
C0
C0
C0
F0
F0
F0
ENDCHAR
STARTCHAR m
ENCODING 109
SWIDTH 851 0
DWIDTH 14 0
BBX 12 8 1 0
BITMAP
DDE0
FFF0
EF70
CE70
CE70
CE70
CE70
C670
ENDCHAR
STARTCHAR n
ENCODING 110
SWIDTH 606 0
DWIDTH 10 0
BBX 8 8 1 0
BITMAP
FE
FE
EF
C7
C7
C7
C7
C7
ENDCHAR
STARTCHAR o
ENCODING 111
SWIDTH 600 0
DWIDTH 10 0
BBX 9 9 0 0
BITMAP
0C00
3F00
7F80
7380
E380
E380
7F80
7F00
1E00
ENDCHAR
STARTCHAR p
ENCODING 112
SWIDTH 582 0
DWIDTH 9 0
BBX 8 12 1 -4
BITMAP
FC
FE
E7
C7
E7
FE
FE
D8
C0
C0
C0
C0
ENDCHAR
STARTCHAR q
ENCODING 113
SWIDTH 582 0
DWIDTH 9 0
BBX 9 12 0 -4
BITMAP
3F80
7F80
7780
E380
E380
7F80
3F80
1B80
0380
0380
0380
0300
ENDCHAR
STARTCHAR r
ENCODING 114
SWIDTH 457 0
DWIDTH 7 0
BBX 6 9 1 0
BITMAP
08
FC
FC
E0
C0
C0
C0
C0
C0
ENDCHAR
STARTCHAR s
ENCODING 115
SWIDTH 489 0
DWIDTH 8 0
BBX 7 9 0 0
BITMAP
18
7E
7E
70
7E
3E
66
FE
7C
ENDCHAR
STARTCHAR t
ENCODING 116
SWIDTH 449 0
DWIDTH 7 0
BBX 7 11 0 0
BITMAP
30
38
38
FE
FE
38
38
38
3C
3E
1C
ENDCHAR
STARTCHAR u
ENCODING 117
SWIDTH 606 0
DWIDTH 10 0
BBX 8 8 1 0
BITMAP
C7
C7
C7
C7
E7
FF
7F
3F
ENDCHAR
STARTCHAR v
ENCODING 118
SWIDTH 638 0
DWIDTH 10 0
BBX 10 9 0 0
BITMAP
2080
E1C0
F1C0
7380
3B80
3F00
1E00
1E00
0C00
ENDCHAR
STARTCHAR w
ENCODING 119
SWIDTH 793 0
DWIDTH 13 0
BBX 12 9 0 0
BITMAP
4020
E730
E770
7F70
7FE0
3FE0
3DE0
1DC0
18C0
ENDCHAR
STARTCHAR x
ENCODING 120
SWIDTH 567 0
DWIDTH 9 0
BBX 9 9 0 0
BITMAP
4100
E380
F780
7F00
3E00
3E00
7F00
F780
6300
ENDCHAR
STARTCHAR y
ENCODING 121
SWIDTH 604 0
DWIDTH 10 0
BBX 9 13 0 -4
BITMAP
4100
E180
7380
7380
3F00
3F00
1E00
0E00
1C00
1C00
1C00
3800
1800
ENDCHAR
STARTCHAR z
ENCODING 122
SWIDTH 586 0
DWIDTH 9 0
BBX 9 8 0 0
BITMAP
7F80
7F80
0F00
1E00
3C00
7F80
FF80
7F80
ENDCHAR
STARTCHAR braceleft
ENCODING 123
SWIDTH 381 0
DWIDTH 6 0
BBX 6 16 0 -4
BITMAP
1C
3C
30
30
30
30
70
F0
F0
30
30
30
30
3C
1C
08
ENDCHAR
STARTCHAR bar
ENCODING 124
SWIDTH 217 0
DWIDTH 3 0
BBX 2 16 1 -4
BITMAP
C0
C0
C0
C0
C0
C0
C0
C0
C0
C0
C0
C0
C0
C0
C0
C0
ENDCHAR
STARTCHAR braceright
ENCODING 125
SWIDTH 381 0
DWIDTH 6 0
BBX 6 16 0 -4
BITMAP
E0
F0
30
30
30
30
38
1C
3C
30
30
30
30
70
F0
40
ENDCHAR
STARTCHAR asciitilde
ENCODING 126
SWIDTH 651 0
DWIDTH 10 0
BBX 8 3 1 3
BITMAP
73
FF
FE
ENDCHAR
STARTCHAR exclamdown
ENCODING 161
SWIDTH 268 0
DWIDTH 4 0
BBX 3 12 1 -4
BITMAP
E0
E0
C0
00
C0
E0
E0
E0
E0
E0
E0
C0
ENDCHAR
STARTCHAR cent
ENCODING 162
SWIDTH 434 0
DWIDTH 7 0
BBX 7 12 0 -1
BITMAP
18
18
18
3C
7E
64
E0
6C
7E
3C
18
18
ENDCHAR
STARTCHAR sterling
ENCODING 163
SWIDTH 675 0
DWIDTH 11 0
BBX 11 12 0 0
BITMAP
0700
1FC0
3FC0
38C0
3000
FE00
FE00
3800
3800
3FC0
7FE0
3FC0
ENDCHAR
STARTCHAR currency
ENCODING 164
SWIDTH 677 0
DWIDTH 11 0
BBX 10 12 0 0
BITMAP
E0C0
7FC0
3F80
7FC0
61C0
60C0
60C0
71C0
7F80
7FC0
E1C0
40C0
ENDCHAR
STARTCHAR yen
ENCODING 165
SWIDTH 677 0
DWIDTH 11 0
BBX 11 12 0 0
BITMAP
60C0
E0E0
71C0
7BC0
3B80
1F00
3F80
3F80
0E00
3F80
3F80
0E00
ENDCHAR
STARTCHAR brokenbar
ENCODING 166
SWIDTH 215 0
DWIDTH 3 0
BBX 2 16 1 -4
BITMAP
C0
C0
C0
C0
C0
C0
C0
00
C0
C0
C0
C0
C0
C0
C0
80
ENDCHAR
STARTCHAR section
ENCODING 167
SWIDTH 560 0
DWIDTH 9 0
BBX 9 16 0 -4
BITMAP
3E00
7F00
7600
6000
7C00
7F00
7F00
6380
7F00
7F00
1F00
0380
6380
FF00
7F00
1800
ENDCHAR
STARTCHAR dieresis
ENCODING 168
SWIDTH 489 0
DWIDTH 8 0
BBX 7 2 1 10
BITMAP
CE
EE
ENDCHAR
STARTCHAR copyright
ENCODING 169
SWIDTH 711 0
DWIDTH 11 0
BBX 11 10 0 2
BITMAP
1F00
31C0
6E40
5F60
D820
D020
D960
4F60
60C0
3F80
ENDCHAR
STARTCHAR ordfeminine
ENCODING 170
SWIDTH 445 0
DWIDTH 7 0
BBX 6 6 0 5
BITMAP
7C
7C
CC
6C
7C
34
ENDCHAR
STARTCHAR guillemotleft
ENCODING 171
SWIDTH 668 0
DWIDTH 11 0
BBX 10 8 0 0
BITMAP
18C0
3DC0
7380
E700
F780
7BC0
3DC0
18C0
ENDCHAR
STARTCHAR logicalnot
ENCODING 172
SWIDTH 526 0
DWIDTH 8 0
BBX 8 5 0 2
BITMAP
FF
FF
7F
03
03
ENDCHAR
STARTCHAR registered
ENCODING 174
SWIDTH 711 0
DWIDTH 11 0
BBX 11 10 0 2
BITMAP
1F00
31C0
6E40
4F60
C920
CF20
CF60
4960
60C0
3F80
ENDCHAR
STARTCHAR degree
ENCODING 176
SWIDTH 407 0
DWIDTH 7 0
BBX 6 5 0 7
BITMAP
78
7C
CC
6C
78
ENDCHAR
STARTCHAR plusminus
ENCODING 177
SWIDTH 505 0
DWIDTH 8 0
BBX 8 9 0 0
BITMAP
18
18
7F
FF
18
18
00
7E
7E
ENDCHAR
STARTCHAR twosuperior
ENCODING 178
SWIDTH 455 0
DWIDTH 7 0
BBX 7 9 0 3
BITMAP
38
7C
EE
EE
1C
3C
7E
FE
7C
ENDCHAR
STARTCHAR threesuperior
ENCODING 179
SWIDTH 457 0
DWIDTH 7 0
BBX 7 9 0 3
BITMAP
3C
7C
6E
1E
1C
66
EE
7C
38
ENDCHAR
STARTCHAR acute
ENCODING 180
SWIDTH 605 0
DWIDTH 10 0
BBX 5 3 2 9
BITMAP
78
F8
60
ENDCHAR
STARTCHAR mu
ENCODING 181
SWIDTH 601 0
DWIDTH 10 0
BBX 8 12 1 -4
BITMAP
C7
C7
C7
C7
E7
FF
FF
FF
C0
C0
C0
40
ENDCHAR
STARTCHAR paragraph
ENCODING 182
SWIDTH 614 0
DWIDTH 10 0
BBX 9 14 0 -4
BITMAP
7F80
7F80
FD80
7D80
7D80
3D80
1D80
1D80
1D80
1D80
1D80
1D80
1D80
0980
ENDCHAR
STARTCHAR periodcentered
ENCODING 183
SWIDTH 237 0
DWIDTH 4 0
BBX 3 3 0 3
BITMAP
E0
E0
60
ENDCHAR
STARTCHAR cedilla
ENCODING 184
SWIDTH 559 0
DWIDTH 9 0
BBX 3 3 3 -3
BITMAP
E0
E0
C0
ENDCHAR
STARTCHAR onesuperior
ENCODING 185
SWIDTH 321 0
DWIDTH 5 0
BBX 5 9 0 3
BITMAP
30
78
F8
F8
38
38
38
38
10
ENDCHAR
STARTCHAR ordmasculine
ENCODING 186
SWIDTH 439 0
DWIDTH 7 0
BBX 7 6 0 5
BITMAP
7C
7C
C6
EE
7C
38
ENDCHAR
STARTCHAR guillemotright
ENCODING 187
SWIDTH 669 0
DWIDTH 11 0
BBX 10 8 0 0
BITMAP
E700
F780
7BC0
3DC0
39C0
7380
E700
4200
ENDCHAR
STARTCHAR onequarter
ENCODING 188
SWIDTH 786 0
DWIDTH 13 0
BBX 11 13 1 0
BITMAP
0100
6180
E300
E200
6600
6400
6D40
0B60
1B60
13E0
33E0
2060
6060
ENDCHAR
STARTCHAR onehalf
ENCODING 189
SWIDTH 804 0
DWIDTH 13 0
BBX 11 13 1 0
BITMAP
0100
6180
E300
E200
6600
6400
6D80
0BC0
1B60
12E0
31C0
23E0
63E0
ENDCHAR
STARTCHAR threequarters
ENCODING 190
SWIDTH 842 0
DWIDTH 13 0
BBX 12 13 1 0
BITMAP
0080
7080
D980
3900
3B00
DA00
FFA0
25B0
0DB0
19F0
19F0
3030
2020
ENDCHAR
STARTCHAR questiondown
ENCODING 191
SWIDTH 511 0
DWIDTH 8 0
BBX 8 12 0 -4
BITMAP
1C
1C
08
00
18
38
78
E2
E7
7F
3E
08
ENDCHAR
STARTCHAR Agrave
ENCODING 192
SWIDTH 765 0
DWIDTH 12 0
BBX 12 15 0 0
BITMAP
1E00
1F00
0300
0600
0700
0F00
0F80
1F80
1FC0
39C0
3FE0
7FE0
7FE0
E070
6070
ENDCHAR
STARTCHAR Aacute
ENCODING 193
SWIDTH 765 0
DWIDTH 12 0
BBX 12 16 0 0
BITMAP
0080
0780
0F80
0400
0600
0700
0F00
0F80
1F80
1FC0
39C0
3FE0
7FE0
7FE0
E070
6070
ENDCHAR
STARTCHAR Acircumflex
ENCODING 194
SWIDTH 765 0
DWIDTH 12 0
BBX 12 16 0 0
BITMAP
0200
1F80
1F80
0000
0600
0700
0F00
0F80
1F80
1FC0
39C0
3FE0
7FE0
7FE0
E070
6070
ENDCHAR
STARTCHAR Atilde
ENCODING 195
SWIDTH 765 0
DWIDTH 12 0
BBX 12 16 0 0
BITMAP
0480
1F80
1F80
0000
0600
0700
0F00
0F80
1F80
1FC0
39C0
3FE0
7FE0
7FE0
E070
6070
ENDCHAR
STARTCHAR Adieresis
ENCODING 196
SWIDTH 765 0
DWIDTH 12 0
BBX 12 16 0 0
BITMAP
1880
19C0
19C0
0000
0600
0700
0F00
0F80
1F80
1FC0
39C0
3FE0
7FE0
7FE0
E070
6070
ENDCHAR
STARTCHAR Aring
ENCODING 197
SWIDTH 765 0
DWIDTH 12 0
BBX 12 15 0 0
BITMAP
0600
0D00
0900
0F00
0700
0F00
0F80
1F80
1FC0
39C0
3FE0
7FE0
7FE0
E070
6070
ENDCHAR
STARTCHAR AE
ENCODING 198
SWIDTH 1148 0
DWIDTH 18 0
BBX 18 12 0 0
BITMAP
007FC0
00FFC0
01FFC0
03F000
07F000
0F7F00
1E7F00
3FFE00
3FF000
7FFFC0
E07FC0
E07FC0
ENDCHAR
STARTCHAR Ccedilla
ENCODING 199
SWIDTH 679 0
DWIDTH 11 0
BBX 10 15 0 -3
BITMAP
0F00
1FC0
3FC0
78C0
7000
E000
E000
7000
7040
7FC0
3FC0
0F80
0700
0100
0700
ENDCHAR
STARTCHAR Egrave
ENCODING 200
SWIDTH 638 0
DWIDTH 10 0
BBX 9 15 1 0
BITMAP
3C00
3E00
0C00
FF00
FF80
FF80
C000
C000
FE00
FE00
FC00
C000
FF80
FF80
FF80
ENDCHAR
STARTCHAR Eacute
ENCODING 201
SWIDTH 638 0
DWIDTH 10 0
BBX 9 16 1 0
BITMAP
0400
1E00
3E00
1000
FF00
FF80
FF80
C000
C000
FE00
FE00
FC00
C000
FF80
FF80
FF80
ENDCHAR
STARTCHAR Ecircumflex
ENCODING 202
SWIDTH 638 0
DWIDTH 10 0
BBX 9 16 1 0
BITMAP
0800
7E00
7E00
0000
FF00
FF80
FF80
C000
C000
FE00
FE00
FC00
C000
FF80
FF80
FF80
ENDCHAR
STARTCHAR Edieresis
ENCODING 203
SWIDTH 638 0
DWIDTH 10 0
BBX 9 16 1 0
BITMAP
6200
7700
7700
0000
FF00
FF80
FF80
C000
C000
FE00
FE00
FC00
C000
FF80
FF80
FF80
ENDCHAR
STARTCHAR Igrave
ENCODING 204
SWIDTH 267 0
DWIDTH 4 0
BBX 5 15 -1 0
BITMAP
F0
F8
18
30
38
38
38
38
38
38
38
38
38
38
30
ENDCHAR
STARTCHAR Iacute
ENCODING 205
SWIDTH 269 0
DWIDTH 4 0
BBX 5 16 0 0
BITMAP
08
78
F8
40
60
70
70
70
70
70
70
70
70
70
70
60
ENDCHAR
STARTCHAR Icircumflex
ENCODING 206
SWIDTH 270 0
DWIDTH 4 0
BBX 6 16 -1 0
BITMAP
10
FC
FC
00
30
38
38
38
38
38
38
38
38
38
38
30
ENDCHAR
STARTCHAR Idieresis
ENCODING 207
SWIDTH 268 0
DWIDTH 4 0
BBX 7 16 -1 0
BITMAP
C4
CE
CE
00
30
38
38
38
38
38
38
38
38
38
38
30
ENDCHAR
STARTCHAR Eth
ENCODING 208
SWIDTH 775 0
DWIDTH 12 0
BBX 12 12 0 0
BITMAP
3F00
3FC0
3FE0
38E0
3870
FC70
FC70
3870
38E0
3FE0
3FC0
3F00
ENDCHAR
STARTCHAR Ntilde
ENCODING 209
SWIDTH 720 0
DWIDTH 12 0
BBX 10 16 1 0
BITMAP
1200
3F00
3E00
0000
C180
E1C0
F1C0
F1C0
F9C0
DDC0
DFC0
CFC0
C7C0
C3C0
C3C0
C1C0
ENDCHAR
STARTCHAR Ograve
ENCODING 210
SWIDTH 775 0
DWIDTH 12 0
BBX 12 15 0 0
BITMAP
0E00
1F00
0300
0F00
1FC0
3FE0
78E0
7070
E070
E070
6070
70F0
7FE0
3FC0
1F80
ENDCHAR
STARTCHAR Oacute
ENCODING 211
SWIDTH 775 0
DWIDTH 12 0
BBX 12 16 0 0
BITMAP
0100
0780
0F80
0400
0F00
1FC0
3FE0
78E0
7070
E070
E070
6070
70F0
7FE0
3FC0
1F80
ENDCHAR
STARTCHAR Ocircumflex
ENCODING 212
SWIDTH 775 0
DWIDTH 12 0
BBX 12 16 0 0
BITMAP
0200
1F80
1F80
0000
0F00
1FC0
3FE0
78E0
7070
E070
E070
6070
70F0
7FE0
3FC0
1F80
ENDCHAR
STARTCHAR Otilde
ENCODING 213
SWIDTH 775 0
DWIDTH 12 0
BBX 12 16 0 0
BITMAP
0480
0FC0
1F80
0000
0F00
1FC0
3FE0
78E0
7070
E070
E070
6070
70F0
7FE0
3FC0
1F80
ENDCHAR
STARTCHAR Odieresis
ENCODING 214
SWIDTH 775 0
DWIDTH 12 0
BBX 12 16 0 0
BITMAP
1880
19C0
19C0
0000
0F00
1FC0
3FE0
78E0
7070
E070
E070
6070
70F0
7FE0
3FC0
1F80
ENDCHAR
STARTCHAR multiply
ENCODING 215
SWIDTH 521 0
DWIDTH 8 0
BBX 8 8 0 0
BITMAP
62
F7
7E
3C
3E
7F
E7
42
ENDCHAR
STARTCHAR Oslash
ENCODING 216
SWIDTH 775 0
DWIDTH 12 0
BBX 12 14 0 -1
BITMAP
0080
0FC0
1FC0
3FE0
7BE0
73F0
E770
E770
6E70
7EF0
7FE0
3FC0
3F80
1800
ENDCHAR
STARTCHAR Ugrave
ENCODING 217
SWIDTH 726 0
DWIDTH 12 0
BBX 10 15 1 0
BITMAP
3800
3C00
0C00
C1C0
C1C0
C1C0
C1C0
C1C0
C1C0
C1C0
E1C0
E1C0
FF80
7F80
3E00
ENDCHAR
STARTCHAR Uacute
ENCODING 218
SWIDTH 726 0
DWIDTH 12 0
BBX 10 16 1 0
BITMAP
0200
0F00
1F00
0800
C1C0
C1C0
C1C0
C1C0
C1C0
C1C0
C1C0
E1C0
E1C0
FF80
7F80
3E00
ENDCHAR
STARTCHAR Ucircumflex
ENCODING 219
SWIDTH 726 0
DWIDTH 12 0
BBX 10 16 1 0
BITMAP
0400
3F00
3F00
0000
C1C0
C1C0
C1C0
C1C0
C1C0
C1C0
C1C0
E1C0
E1C0
FF80
7F80
3E00
ENDCHAR
STARTCHAR Udieresis
ENCODING 220
SWIDTH 726 0
DWIDTH 12 0
BBX 10 16 1 0
BITMAP
2300
7300
7300
0000
C1C0
C1C0
C1C0
C1C0
C1C0
C1C0
C1C0
E1C0
E1C0
FF80
7F80
3E00
ENDCHAR
STARTCHAR Yacute
ENCODING 221
SWIDTH 686 0
DWIDTH 11 0
BBX 11 16 0 0
BITMAP
0100
0F00
1F00
0800
60C0
E0E0
71C0
7BC0
3B80
1F00
1F00
0E00
0E00
0E00
0E00
0E00
ENDCHAR
STARTCHAR Thorn
ENCODING 222
SWIDTH 634 0
DWIDTH 10 0
BBX 9 12 1 0
BITMAP
C000
C000
FE00
FF00
FF00
C380
C380
C780
FF00
FE00
C000
C000
ENDCHAR
STARTCHAR germandbls
ENCODING 223
SWIDTH 633 0
DWIDTH 10 0
BBX 9 13 1 -1
BITMAP
7C00
FE00
E600
CE00
CC00
DC00
CE00
C700
C380
CB80
DF80
DF00
4000
ENDCHAR
STARTCHAR agrave
ENCODING 224
SWIDTH 596 0
DWIDTH 10 0
BBX 9 12 0 0
BITMAP
1E00
1E00
0600
0000
3F80
7F80
7780
E380
E380
7F80
7F80
1F80
ENDCHAR
STARTCHAR aacute
ENCODING 225
SWIDTH 596 0
DWIDTH 10 0
BBX 9 12 0 0
BITMAP
0E00
1F00
1800
0000
3F80
7F80
7780
E380
E380
7F80
7F80
1F80
ENDCHAR
STARTCHAR acircumflex
ENCODING 226
SWIDTH 596 0
DWIDTH 10 0
BBX 9 12 0 0
BITMAP
3F00
3F00
1100
0000
3F80
7F80
7780
E380
E380
7F80
7F80
1F80
ENDCHAR
STARTCHAR atilde
ENCODING 227
SWIDTH 596 0
DWIDTH 10 0
BBX 9 12 0 0
BITMAP
1F00
3F00
1200
0000
3F80
7F80
7780
E380
E380
7F80
7F80
1F80
ENDCHAR
STARTCHAR adieresis
ENCODING 228
SWIDTH 596 0
DWIDTH 10 0
BBX 9 12 0 0
BITMAP
3380
3380
0000
0000
3F80
7F80
7780
E380
E380
7F80
7F80
1F80
ENDCHAR
STARTCHAR aring
ENCODING 229
SWIDTH 596 0
DWIDTH 10 0
BBX 9 12 0 0
BITMAP
0C00
0A00
0E00
0000
3F80
7F80
7780
E380
E380
7F80
7F80
1F80
ENDCHAR
STARTCHAR ae
ENCODING 230
SWIDTH 910 0
DWIDTH 15 0
BBX 14 9 0 0
BITMAP
0820
7FF8
7FFC
679C
03FC
7FF8
E3C8
7FFC
7CF8
ENDCHAR
STARTCHAR ccedilla
ENCODING 231
SWIDTH 524 0
DWIDTH 8 0
BBX 8 12 0 -3
BITMAP
0C
3F
7F
72
E0
F0
7F
7F
1E
1C
14
1C
ENDCHAR
STARTCHAR egrave
ENCODING 232
SWIDTH 573 0
DWIDTH 9 0
BBX 9 12 0 0
BITMAP
3C00
3E00
0600
0C00
3F00
7F80
7380
FF80
FF00
7100
7F00
3F00
ENDCHAR
STARTCHAR eacute
ENCODING 233
SWIDTH 573 0
DWIDTH 9 0
BBX 9 12 0 0
BITMAP
0E00
1E00
1800
0C00
3F00
7F80
7380
FF80
FF00
7100
7F00
3F00
ENDCHAR
STARTCHAR ecircumflex
ENCODING 234
SWIDTH 573 0
DWIDTH 9 0
BBX 9 12 0 0
BITMAP
3F00
3F00
2200
0C00
3F00
7F80
7380
FF80
FF00
7100
7F00
3F00
ENDCHAR
STARTCHAR edieresis
ENCODING 235
SWIDTH 573 0
DWIDTH 9 0
BBX 9 12 0 0
BITMAP
7700
7700
0000
0C00
3F00
7F80
7380
FF80
FF00
7100
7F00
3F00
ENDCHAR
STARTCHAR igrave
ENCODING 236
SWIDTH 255 0
DWIDTH 4 0
BBX 5 12 -1 0
BITMAP
F0
F8
18
00
30
30
30
30
30
30
30
30
ENDCHAR
STARTCHAR iacute
ENCODING 237
SWIDTH 255 0
DWIDTH 4 0
BBX 5 12 0 0
BITMAP
78
F8
60
00
60
60
60
60
60
60
60
60
ENDCHAR
STARTCHAR icircumflex
ENCODING 238
SWIDTH 255 0
DWIDTH 4 0
BBX 6 12 -1 0
BITMAP
FC
FC
4C
00
30
30
30
30
30
30
30
30
ENDCHAR
STARTCHAR idieresis
ENCODING 239
SWIDTH 255 0
DWIDTH 4 0
BBX 8 12 -2 0
BITMAP
67
E7
00
00
18
18
18
18
18
18
18
18
ENDCHAR
STARTCHAR eth
ENCODING 240
SWIDTH 585 0
DWIDTH 9 0
BBX 9 13 0 0
BITMAP
0400
1C00
3E00
1700
0300
3F80
7F80
7780
E380
E380
7F80
7F00
3E00
ENDCHAR
STARTCHAR ntilde
ENCODING 241
SWIDTH 606 0
DWIDTH 10 0
BBX 8 12 1 0
BITMAP
7E
7E
48
00
FE
FE
EF
C7
C7
C7
C7
C7
ENDCHAR
STARTCHAR ograve
ENCODING 242
SWIDTH 600 0
DWIDTH 10 0
BBX 9 12 0 0
BITMAP
1C00
3E00
0600
0C00
3F00
7F80
7380
E380
E380
7F80
7F00
1E00
ENDCHAR
STARTCHAR oacute
ENCODING 243
SWIDTH 600 0
DWIDTH 10 0
BBX 9 12 0 0
BITMAP
0E00
1F00
1800
0C00
3F00
7F80
7380
E380
E380
7F80
7F00
1E00
ENDCHAR
STARTCHAR ocircumflex
ENCODING 244
SWIDTH 600 0
DWIDTH 10 0
BBX 9 12 0 0
BITMAP
3F00
3F00
2200
0C00
3F00
7F80
7380
E380
E380
7F80
7F00
1E00
ENDCHAR
STARTCHAR otilde
ENCODING 245
SWIDTH 600 0
DWIDTH 10 0
BBX 9 12 0 0
BITMAP
3F00
3F00
2400
0C00
3F00
7F80
7380
E380
E380
7F80
7F00
1E00
ENDCHAR
STARTCHAR odieresis
ENCODING 246
SWIDTH 600 0
DWIDTH 10 0
BBX 9 12 0 0
BITMAP
7700
7700
0000
0C00
3F00
7F80
7380
E380
E380
7F80
7F00
1E00
ENDCHAR
STARTCHAR divide
ENCODING 247
SWIDTH 503 0
DWIDTH 8 0
BBX 8 9 0 0
BITMAP
18
18
18
7E
FF
7E
18
18
18
ENDCHAR
STARTCHAR oslash
ENCODING 248
SWIDTH 600 0
DWIDTH 10 0
BBX 9 13 0 -2
BITMAP
0300
0380
0F00
3F00
7F80
7380
E380
E380
7F80
7F00
3E00
7000
7000
ENDCHAR
STARTCHAR ugrave
ENCODING 249
SWIDTH 606 0
DWIDTH 10 0
BBX 8 12 1 0
BITMAP
38
7C
0C
00
C7
C7
C7
C7
E7
FF
7F
3F
ENDCHAR
STARTCHAR uacute
ENCODING 250
SWIDTH 606 0
DWIDTH 10 0
BBX 8 12 1 0
BITMAP
1E
3E
30
00
C7
C7
C7
C7
E7
FF
7F
3F
ENDCHAR
STARTCHAR ucircumflex
ENCODING 251
SWIDTH 606 0
DWIDTH 10 0
BBX 8 12 1 0
BITMAP
7E
7E
64
00
C7
C7
C7
C7
E7
FF
7F
3F
ENDCHAR
STARTCHAR udieresis
ENCODING 252
SWIDTH 606 0
DWIDTH 10 0
BBX 8 12 1 0
BITMAP
E6
E6
00
00
C7
C7
C7
C7
E7
FF
7F
3F
ENDCHAR
STARTCHAR yacute
ENCODING 253
SWIDTH 604 0
DWIDTH 10 0
BBX 9 16 0 -4
BITMAP
0F00
1F00
1800
4100
E180
7380
7380
3F00
3F00
1E00
0E00
1C00
1C00
1C00
3800
1800
ENDCHAR
STARTCHAR thorn
ENCODING 254
SWIDTH 580 0
DWIDTH 9 0
BBX 8 17 1 -4
BITMAP
C0
C0
C0
C0
C0
FC
FE
EF
C7
C7
FF
FE
DC
C0
C0
C0
C0
ENDCHAR
STARTCHAR ydieresis
ENCODING 255
SWIDTH 604 0
DWIDTH 10 0
BBX 9 16 0 -4
BITMAP
7380
7380
0000
4100
E180
7380
7380
3F00
3F00
1E00
0E00
1C00
1C00
1C00
3800
1800
ENDCHAR
STARTCHAR dotlessi
ENCODING 305
SWIDTH 255 0
DWIDTH 4 0
BBX 2 8 1 0
BITMAP
C0
C0
C0
C0
C0
C0
C0
C0
ENDCHAR
STARTCHAR Lslash
ENCODING 321
SWIDTH 687 0
DWIDTH 11 0
BBX 11 12 0 0
BITMAP
1800
3800
3800
3800
3E00
7E00
F800
7800
3800
3800
3FE0
3FE0
ENDCHAR
STARTCHAR lslash
ENCODING 322
SWIDTH 468 0
DWIDTH 7 0
BBX 7 12 0 0
BITMAP
38
38
38
38
3E
7E
F8
78
38
3C
3C
1C
ENDCHAR
STARTCHAR OE
ENCODING 338
SWIDTH 1092 0
DWIDTH 17 0
BBX 17 12 0 0
BITMAP
0FFF80
1FFF80
3FFF80
78E000
70E000
E0FE00
E0FE00
70FE00
70E000
7FFF80
3FFF80
0FFF80
ENDCHAR
STARTCHAR oe
ENCODING 339
SWIDTH 944 0
DWIDTH 15 0
BBX 15 9 0 0
BITMAP
0C20
3FFC
7FFC
73CE
E3FE
E3FC
7FCC
7FFC
3EFC
ENDCHAR
STARTCHAR Scaron
ENCODING 352
SWIDTH 583 0
DWIDTH 9 0
BBX 9 16 0 0
BITMAP
2200
7F00
3F00
0000
1E00
7F00
7F00
6200
7000
7E00
3F80
0780
6380
F780
7F00
3E00
ENDCHAR
STARTCHAR scaron
ENCODING 353
SWIDTH 489 0
DWIDTH 8 0
BBX 7 12 0 0
BITMAP
7E
7E
10
18
7E
7E
70
7E
3E
66
FE
7C
ENDCHAR
STARTCHAR Ydieresis
ENCODING 376
SWIDTH 686 0
DWIDTH 11 0
BBX 11 16 0 0
BITMAP
1100
3B80
3B80
0000
60C0
E0E0
71C0
7BC0
3B80
1F00
1F00
0E00
0E00
0E00
0E00
0E00
ENDCHAR
STARTCHAR Zcaron
ENCODING 381
SWIDTH 643 0
DWIDTH 10 0
BBX 10 16 0 0
BITMAP
1100
3F00
3F00
0000
7F80
FFC0
7F80
0780
0F00
0E00
1E00
3C00
3800
7FC0
FFC0
7FC0
ENDCHAR
STARTCHAR zcaron
ENCODING 382
SWIDTH 586 0
DWIDTH 9 0
BBX 9 12 0 0
BITMAP
3F00
3F00
0800
0000
7F80
7F80
0F00
1E00
3C00
7F80
FF80
7F80
ENDCHAR
STARTCHAR florin
ENCODING 402
SWIDTH 529 0
DWIDTH 8 0
BBX 8 16 0 -4
BITMAP
07
0F
1F
1C
3F
7F
7F
1C
18
18
38
38
38
F8
F0
C0
ENDCHAR
STARTCHAR circumflex
ENCODING 710
SWIDTH 603 0
DWIDTH 10 0
BBX 6 3 2 9
BITMAP
FC
FC
88
ENDCHAR
STARTCHAR caron
ENCODING 711
SWIDTH 600 0
DWIDTH 10 0
BBX 6 3 2 9
BITMAP
FC
FC
20
ENDCHAR
STARTCHAR dotaccent
ENCODING 729
SWIDTH 285 0
DWIDTH 5 0
BBX 3 3 1 11
BITMAP
E0
E0
C0
ENDCHAR
STARTCHAR ring
ENCODING 730
SWIDTH 378 0
DWIDTH 6 0
BBX 4 4 1 11
BITMAP
60
F0
90
F0
ENDCHAR
STARTCHAR ogonek
ENCODING 731
SWIDTH 570 0
DWIDTH 9 0
BBX 3 3 3 -3
BITMAP
E0
A0
E0
ENDCHAR
STARTCHAR tilde
ENCODING 732
SWIDTH 584 0
DWIDTH 9 0
BBX 7 3 1 9
BITMAP
7E
FC
48
ENDCHAR
STARTCHAR endash
ENCODING 8211
SWIDTH 561 0
DWIDTH 9 0
BBX 9 3 0 3
BITMAP
7F00
FF80
FF80
ENDCHAR
STARTCHAR emdash
ENCODING 8212
SWIDTH 693 0
DWIDTH 11 0
BBX 11 3 0 3
BITMAP
7FC0
FFE0
FFE0
ENDCHAR
STARTCHAR quoteleft
ENCODING 8216
SWIDTH 237 0
DWIDTH 4 0
BBX 3 6 0 6
BITMAP
20
60
40
E0
E0
60
ENDCHAR
STARTCHAR quoteright
ENCODING 8217
SWIDTH 237 0
DWIDTH 4 0
BBX 3 6 0 6
BITMAP
60
E0
E0
60
60
C0
ENDCHAR
STARTCHAR quotesinglbase
ENCODING 8218
SWIDTH 237 0
DWIDTH 4 0
BBX 3 6 0 -3
BITMAP
60
E0
60
60
60
80
ENDCHAR
STARTCHAR quotedblleft
ENCODING 8220
SWIDTH 482 0
DWIDTH 8 0
BBX 7 6 0 6
BITMAP
22
66
44
EE
EE
66
ENDCHAR
STARTCHAR quotedblright
ENCODING 8221
SWIDTH 482 0
DWIDTH 8 0
BBX 7 6 0 6
BITMAP
66
EE
EE
66
66
CC
ENDCHAR
STARTCHAR quotedblbase
ENCODING 8222
SWIDTH 482 0
DWIDTH 8 0
BBX 7 6 0 -3
BITMAP
66
EE
6E
66
6C
88
ENDCHAR
STARTCHAR dagger
ENCODING 8224
SWIDTH 527 0
DWIDTH 8 0
BBX 8 15 0 -3
BITMAP
18
1C
1C
1C
FF
FF
1C
1C
1C
1C
1C
1C
1C
1C
18
ENDCHAR
STARTCHAR daggerdbl
ENCODING 8225
SWIDTH 527 0
DWIDTH 8 0
BBX 8 15 0 -3
BITMAP
18
1C
1C
1C
FF
FF
1C
1C
1C
FF
FF
1C
1C
1C
18
ENDCHAR
STARTCHAR bullet
ENCODING 8226
SWIDTH 342 0
DWIDTH 5 0
BBX 5 4 0 3
BITMAP
78
F8
F8
78
ENDCHAR
STARTCHAR ellipsis
ENCODING 8230
SWIDTH 911 0
DWIDTH 15 0
BBX 14 3 0 0
BITMAP
639C
E39C
639C
ENDCHAR
STARTCHAR perthousand
ENCODING 8240
SWIDTH 1223 0
DWIDTH 20 0
BBX 18 13 1 0
BITMAP
008000
70C000
F98000
D90000
9B0000
FA0000
F60000
04E380
0DF7C0
0B34C0
1B34C0
11F7C0
31E380
ENDCHAR
STARTCHAR guilsinglleft
ENCODING 8249
SWIDTH 383 0
DWIDTH 6 0
BBX 6 8 0 0
BITMAP
1C
3C
78
F0
70
38
1C
08
ENDCHAR
STARTCHAR guilsinglright
ENCODING 8250
SWIDTH 383 0
DWIDTH 6 0
BBX 6 8 0 0
BITMAP
E0
F0
78
3C
3C
78
F0
60
ENDCHAR
STARTCHAR fraction
ENCODING 8260
SWIDTH 433 0
DWIDTH 7 0
BBX 7 13 1 0
BITMAP
02
02
06
04
0C
18
10
30
20
60
40
C0
80
ENDCHAR
STARTCHAR Euro
ENCODING 8364
SWIDTH 612 0
DWIDTH 10 0
BBX 9 12 0 0
BITMAP
1F80
1F80
3C00
3800
FF80
3000
FF00
FF80
3800
3F80
1F80
0F80
ENDCHAR
STARTCHAR trademark
ENCODING 8482
SWIDTH 840 0
DWIDTH 13 0
BBX 13 6 0 4
BITMAP
FD98
FDB8
31F8
31F8
31D8
3118
ENDCHAR
STARTCHAR minus
ENCODING 8722
SWIDTH 581 0
DWIDTH 9 0
BBX 9 3 0 3
BITMAP
7F80
FF80
7F80
ENDCHAR
STARTCHAR f_f
ENCODING 64256
SWIDTH 803 0
DWIDTH 13 0
BBX 13 12 0 0
BITMAP
1EF0
3EF0
39C0
39C0
FFF8
FFF8
39C0
39C0
39C0
39C0
39C0
31C0
ENDCHAR
STARTCHAR fi
ENCODING 64257
SWIDTH 709 0
DWIDTH 11 0
BBX 11 12 0 0
BITMAP
1EE0
3EE0
3800
3800
FEE0
FEE0
38E0
38E0
38E0
38E0
38E0
30E0
ENDCHAR
STARTCHAR fl
ENCODING 64258
SWIDTH 774 0
DWIDTH 12 0
BBX 12 12 0 0
BITMAP
1EE0
3EE0
38E0
38E0
FEE0
FEE0
38E0
38E0
38E0
38F0
38F0
3070
ENDCHAR
STARTCHAR f_f_i
ENCODING 64259
SWIDTH 1059 0
DWIDTH 17 0
BBX 16 12 0 0
BITMAP
1EF3
3EF3
39C2
39C0
FFFB
FFFB
39C3
39C3
39C3
39C3
39C3
31C3
ENDCHAR
STARTCHAR .notdef
ENCODING -1
SWIDTH 500 0
DWIDTH 8 0
BBX 1 1 0 0
BITMAP
00
ENDCHAR
STARTCHAR .null
ENCODING -1
SWIDTH 0 0
DWIDTH 0 0
BBX 1 1 0 0
BITMAP
00
ENDCHAR
STARTCHAR nonmarkingreturn
ENCODING -1
SWIDTH 333 0
DWIDTH 5 0
BBX 1 1 0 0
BITMAP
00
ENDCHAR
STARTCHAR f_t
ENCODING -1
SWIDTH 814 0
DWIDTH 13 0
BBX 13 12 0 0
BITMAP
1E00
3EC0
38C0
38C0
FFF8
FFF8
38C0
38C0
38C0
38F0
38F0
3070
ENDCHAR
STARTCHAR t_t
ENCODING -1
SWIDTH 794 0
DWIDTH 13 0
BBX 12 11 0 0
BITMAP
31C0
39C0
39C0
FFF0
FFF0
39C0
39C0
39C0
3DF0
3EF0
1C70
ENDCHAR
STARTCHAR l_l
ENCODING -1
SWIDTH 626 0
DWIDTH 10 0
BBX 9 12 1 0
BITMAP
CE00
CE00
CE00
CE00
CE00
CE00
CE00
CE00
CE00
EF00
FF80
6780
ENDCHAR
STARTCHAR j_j
ENCODING -1
SWIDTH 521 0
DWIDTH 8 0
BBX 10 16 -2 -4
BITMAP
19C0
19C0
0000
0000
19C0
19C0
19C0
19C0
19C0
19C0
19C0
19C0
39C0
FF80
F780
E300
ENDCHAR
ENDFONT
